<svg xmlns="http://www.w3.org/2000/svg" viewBox="0 0 263.18 236.72"><defs><style>.cls-1{stroke:#000;stroke-miterlimit:10;}</style></defs><title>icon</title><g id="Calque_2" data-name="Calque 2"><g id="compact"><path class="cls-1" d="M36.24,82l-1.32.35-1.7.49-2.69.85-.06.07-.4.21h-.59l-.59-.14L27.12,84l-.33.78-.19.28-.4-.35L25,84.4a5,5,0,0,0-1.77.07l-3.08.92-.92-.22-.85.22-1.64.28-2,.07L12.24,85l-1.9.29L9.09,85H8.17L7.58,85l-1-.07-.65-.07H5.81a2.17,2.17,0,0,0-.65-.14H4.37l-.72-.21-.53-.35v-.08l-.26-.35-.06-.21v-.42l-.13-.43-.27-.35-.26-.49-.06-.64-.53-1.13-.2-1v-.64l-.19-.7a4.54,4.54,0,0,1-.26-1.7l-.33-.49L.5,74.65l.07-.92L1,72.82l.19-1.13.13-.5.46-1.48.27-.43.13-.49.19-.42.07-.22.13-.49.52-1.77.4-1.27.26-.49.07-.28L4,63.21,4,63.14l.07-.35v-.14l.13-.07.06-.15.07-.28.2-.14v-.07l.13-.49L5,60.88l.26-.35h.06l.33-.64.2-.14a3,3,0,0,1,.46-.64c.32-.63.46-1.12.85-1.83l.26-.85.2-.42.59-.64L8.37,55l.33-.35-.13-.08-.13-.21L8.57,54,8.7,54V54l-.07.35.13-.28L9,54,9,53.82l.13-.21-.07-.07.13-.07.72-1.06.13-.22L11.52,50l.06-.42,1.84-2.47.06-.49.33-.29v-.14l.46-.78.13-.21.07-.14.85-1.27.13-.07.07-.21.13-.07.13-.29.26-.28.39-.77.2-.36.66-.7.52-.43.2-.07.59-.78.46-.91.19-.29.4-.21.33-.28.45-.78.33-.28.2-.49.2-.22.19-.42.26-.28-.06-.43.2-.14.45-.14.33-.28h.13l.13-.07c1.05-1.34,2.17-2.68,3.35-4.1l.59-.84.72-.71v-.35l.33-.43.13-.21.65-.35.14-.36.32-.28.2-.07.85-1a3.21,3.21,0,0,1,.66-.7l2.42-2.76.46-.7.2-.43.59-.21.2-.28,3.28-3.6.39-.71.2-.56.06-.5.13-.14.46-.07.2-.14.52-.57.59-.35.46-.42.53-.71.06-.07.33-.5.2-.35.32-.21.27-.64.19-.21.46-.35.4-.07.39-.35.39-.15.13-.14.33-.14A.19.19,0,0,0,45,9.75l.13-.35.2-.5,1-1.2.85-.42h.07l.06-.42.13-.5.59-1,.53-.21V5l.46-.28.19-.43.53-.63,1.44-1.7,1-.92L53,.5h.59l.2.35.06.43-.13.21-.32.63h.06l-.06.07-.14.29.2-.14.07.07L53.28,3l-.13.35.07.15a4.25,4.25,0,0,1-1,1.62l-.07.07L52,5.65l-.19.29V6l-.07.21-.2.07-.72.85-.13-.07-.33.28-.13.42-.78.36-.07.07-.2.28-.26.71-1.11-.07-.07.07-.39.35.33.07-.07.42-.33.29-.13-.15.07-.28-.2.21-.33.07-.13.22-.2.35v.07l-.19.07-1.38,1.2-.13.35-.85.71-.33.71L42,15.19l-.2.35-2.16,2.12-.33.5-.66.56-.19.07-.46.49-.92.36.06.14-.85.92-.39.14-1.18,1.41-1.38,1.34-1.64,1.84-.78,1.06-.66,1.06-1.64,1.83h-.2l-.06.07-1.12,1.42-.06.21-.53,1H26.4l-.06.21-.27.14-.06.42-.26.36-.27.07-1,.78-.52.56-.53.64-.2.63-.32.35-.4.64-.39.56-.39.43-.33.21-2.56,3.32h.07l-.27.56-.39.29-1.05,1.41-.19.49-.33.29-.86,1.13-.06.21-.13.21-.4.49-.19.57-.13.35-.33.07-.07.28-.19.29-.79.77-.13.22-.07.21-.52.77-.26.36L12,51.42l-1.31,2-.66.63L8.63,56.71l-.39.78.06.07v.64l-.06.28L8,59.19l-.66.49L6.6,60.74v.49l-.13.5-.07.21v.14l-.13.21-.33.22-.65,1.55-.07.85L5,66.18l-.07.56-.06.5L4.57,68,4,69.28l-.65,1.84A17.91,17.91,0,0,0,3.12,73l-.06.07H3l-.06.63v.71l.06.07-.06.28-.2,1.06.13,1.7a7.94,7.94,0,0,0,1.38,2l.39.15,1,.42.26.07.19.14.27.21.06.14.46.07.13.43v.07l.33.21.13.07h.13l1.64.21.4.29.91.21h.33l.13.07.79.21,1.7.28a6.85,6.85,0,0,1,1.12.14h1.18v-.07l.33.07.19.15A13.15,13.15,0,0,1,18,83.2l.2-.07.19.14a6.13,6.13,0,0,1,1.12.14l.78-.14,1.25-.14.06.14c.33,0,.66-.07,1-.07l1.31-.29.33.07.52-.28h2.1l2.95-.35.39-.14.27.07,3-.5.19-.07.92-.21.46-.14h.72s.07-.07.07,0l.26-.21,1.57-.21.4-.29.78-.07.59-.14,2-.35,1-.35.66-.36,1.24-.21.33-.07.2.07.46-.07.19-.07V79l.92-.21.39-.29.27.15,1.9-.5.26-.28.66-.21h.78l.92-.21a20.52,20.52,0,0,1,2.88-.78l1-.57.52-.14.66-.07.65-.35.4-.07h.06l2.23-.5.2-.14.2-.28,2.23-.42a3,3,0,0,1,.91-.22l5.18-1.55h.07l.2-.14,1-.35.53-.14,1.9-.71.2.07.39-.14.26-.07.33-.21.46-.07,1.51-.85L77,69.28h.2l1.51-.56,1-.49.26-.15.46.15.2.28-.2.21-.26.14-.46.14a63.49,63.49,0,0,1-8.59,3.46l-.07.21-.78.15c-1.9.63-3.87,1.2-5.84,1.76l-1.38.57H62.4c-.13,0-.2,0-.26.07l-1.51.42-1.38.71-3.47.77-.4.14-1.44.43-.2.07H54v.14l-.27.14h-.26l.07-.21-.33.21-.46.14-.46.21-.13.22-.52.21-1,.14-.72.28-.39.07h-.2l-.13.07v.07h-.13l.06-.07-.26-.07-1,.07.06-.07L45.55,80l-2,.49-.46.21-2.36.5-.73.21-.59.14-.39.21-.59.15-1.84.21Z"/><path class="cls-1" d="M97.87,61.45a2,2,0,0,1,.26-.85v-.14l.07-.21.32-.64.07-.28.2-.29c0-.07.13-.21.13-.28l.06-.14c.39-.85.85-1.62,1.25-2.47l.13-.35.2-.29.32-.63.07-.21.33-.64.06-.42.26-.43v-.56l-.13-.21-.13-.36-.26.21H101l-.85.36-1.38.49-.2.14-.46.14-.65.36-1.64.92-1.18.77-.39.21-3.87,2.41-.33.35h-.13l-.2.28-1.9,1.13-.72.28-.13.15L84.36,61.8l-.13.14L84.1,62l-.26.35-.2.07v.08l-.59.28-.2.21h-.19l-.33.28-.13.07-.07.07-.13.07-.2.07-.26.15-.39.42-.27.07-.45.14-.4.28-.19.21-.53.29-1,.14-.46.21v.07l-.2.14-.06-.07h-.07l-.39.14H77l-.07.14-.06.08-.07-.08.07-.07h-.26l-1.84-.21v-.07h-.39l-.4-.21-.65-.42c-.13,0-.2-.08-.33-.08v-.07l-.06.07-.2-.35a4.45,4.45,0,0,1,.06-.92v-.42l.2-1.27.13-.57.26-.35.2-.56.07-.22.32-.42.14-.28.45-.57.79-1.48.2-.56.39-.57.33-.49.26-.71.39-.64.27-.35.39-.35.07-.14.13-.14.33-.5v-.14h.06l.33-.57.92-1,.26-.5.13-.21.07-.14.13-.71v-.77l.13-.5L80,48v-.29l.19-.42.4-.35.72-1,.59-.43h.46l.33.29v.07s0,.07.06.07a1.64,1.64,0,0,1,.2,1L83,47l.13,1.2-.19.85-.33.56-.66.78-.52,1.27-.46.42-.2.21-.39.43-.39.49-.27.21-.06.15-.26.35-.4.35-.06.21h-.07l-.13.07-1.38,1.91-.13.28-.19.36-.27.28c-.32.49-.65,1-.91,1.48l-.66,1a6.48,6.48,0,0,1-.39.71l-.27.49-.06.5-.13.7-.33.57-.07.42-.06.07a1.64,1.64,0,0,0,.06.57c.33.56,2,.14,3.68-.5L78,63l.66-.07,1-.42.52-.15.53-.28c.92-.42,1.77-.85,2.69-1.34l.39-.35.46-.22.59-.28.39-.21.53-.57,1.64-.7c.06-.07.13-.14.19-.14l.13-.21.46-.15L89.61,57l.06-.07.26-.36.27-.07.13-.21.32-.21.2-.21.92-.29,2-1.27.59-.49.85-.5.79-.84.45-.29.59-.35.79-.35.33-.21.52-.36,1.58-.63.26-.14.59-.36.39-.42.07-.14.13-.07.26.14a6.19,6.19,0,0,1,1.12-.57l.06-.07.59-.28.2.07a.74.74,0,0,1,.39.43l.13-.08.4.15.33.21v.28l-.14.21h.14v.14l-.14-.07v.14l-.13.14-.19.43-.53.63-.33.57v.42l-.59.85-.13.35-.19.36-.33.49-.13.21-.26.71-.27.63-.39.5-.07.28-.52.85-.07.28-.26.64-.06.42-.33.64-.2.21c-.33.92-.46,1.62-.13,1.9a2,2,0,0,0,1.31.64l.66.07h.52l.39.07h.46a14.37,14.37,0,0,0,2.3-.28l.06-.07h.4l.92-.28.32.07,1.45-.22.06-.07h.07l.39-.14.85-.07.66-.07h.06A.25.25,0,0,1,111,61h.07l.39-.07.33.14.13.21-.26.22-.27.07-.19.07-1.18.07-.26.21-.2.14-.13-.14-.85.21-2.23.78-.59.07-.4.07-.85.28-.59.07-.46.07h-.13a.24.24,0,0,1-.2.07H103l-.78.14-1,.22h-.52a10.38,10.38,0,0,1-1.9.14l-.14.07L98.52,64c-.13,0-.19-.07-.26-.07h-.2l-.19-.29-.07-.21v-.14l-.06-.07v-.07a1.52,1.52,0,0,1-.07-1l.07-.49Z"/><path class="cls-1" d="M145.07,83.48c-.13-.57-.32-1.06-.46-1.55l-.45-.57-.2-.56-.26-.36v-1.9c-.46-1.63-.53-1.63-.59-2l-.2-.21-.26-.71-.33-.85-.39-1.48a3.49,3.49,0,0,1-.14-.85l-1-2.12-.13-.63-.26-.28-.2-.57-.33-.35V68.3l-.06-1.06-.07-.29-1.31-2.19v-.63l-.06-.07-1.32-2.33v-.14l-.26-.5-.13-.07.07-.07-.59-1.62L136,58.9l-.26-.56-.19-.57h-.07l-.26-.49-.2-.42-.59-1.06v-.15l-.59-1-.46-1-1.18-1.56-.33-.42-.19-.42-.13-.14-1-1.28a12,12,0,0,1-1.38.78l-.2.14-.13.14-.85.5h-.13l-.13.14-.53.28-.19.21h-.27l-.26.14-.06.07-3,1.7a2.61,2.61,0,0,1-.59.35v.07l-.07.07h-.13l-1.5.92-.14.14-.78.5-.46.35-1.58.85-.13.21-2.23,1.34a1.37,1.37,0,0,1-.52.35l-.2.22-.46.28-1,.64L111,62.08l-.07.07c-.06,0-.06.07-.13.07l-.13.21-.39.15A33.28,33.28,0,0,0,107,65.19l-.4.35-.52.5H106l-1.18,1.2-.72,1.13-.19.28-.53.92c0,.07-.06.07-.13.14l-.07.14-.45.35-.13-.42.13-.28v-.07c.06-.08.13-.15.13-.22l.32-.7a.07.07,0,0,1,.07-.07L103.9,67l.13-.56.13-.14h.39l.2-.21.39-.29.26-.14.53-.42.46-.43.59-.49.13-.21.33-.43.26-.35.26-.14.4-.63.19-.15L109,62l.39-.07.4-.35.46-.14.06-.08.59-.28.07-.28.26.14a3.64,3.64,0,0,1,.59-.49v-.07l.26-.22.26-.14,1.18-.92.14-.42.19-.07.59-.14.79-.49.07-.15.26-.14L117,56.36l.52-.28.4-.43.85-.56.66-.42.45-.36L121,54.1l.33-.21.19-.14.53-.43.26-.07L126.06,51l.2-.28.65-.63,1.31-.5,1-1,.26-.14-.4-.07-.39-.64-.06-.42c-.27.14-.53.21-.59.07-.46-.63-.92-1.27-1.32-1.91l-.45-.28-.46.07-.33-.07L125.4,45l-.19-.14-.33-.57-.53-.91-.39-.64.2-.49.39-.36.26-.07a.52.52,0,0,1,.72-.49l.2.28h.2v.07l.46.21-.07-.07h.13l.26.14.46.22.33.35v.07l.13.07.07.14.19.14.07-.07.07.07L128,43l.2.36v.07l.26.21.13-.07h.07l-.07.21.26.35v.14l.07.22.13.28v.35l.06.07v.07l.79,1.06.2.07.13.29.13.07.07.14.32.14.46.35.07.14.78-.28.6-.35,2-.78h.2l.39-.14a.52.52,0,0,0,.26-.14l1.31-.71.59-.35,3.35-1.7.06-.07.4-.35.26-.14.59-.07h.06l.27-.21h.26c.78-.36,1.64-.78,2.42-1.06l.27-.21.59-.43.26-.07.19-.42.2-.07.46.14.46-.07h1.18a4.87,4.87,0,0,1,1.44,0l.13-.07h.07v.21c.2.07.26.21.33.42a1.4,1.4,0,0,1,0,.5h.13v.07l.06.21-.06.21.06.14v.07l-.13.43.07.07-.07.07-.06-.07-.13.21-.07.14-.13.07.06.07-.26.43-.39.35-.39.21.06-.07L149,44v.07l-.33.14-.33.07-.26-.14-.2-.28.13-.49.2-.78v-.21h-.07l-.39-.21-.33-.22L144,42.8l-.19.21h-.33l-.79.14-2,1.13-.06.08-.33.28H140l-.13.21-.39.14-.13.14h-.2l-.26.14-.26.29-.59.21-1.18.7-.26.07-.73.36-.85.49-1,.5-.66.42-.52.35-.46.36-.53.14.07.07c.46.63.85,1.27,1.25,1.91l.32.28.13.21L134,52l.13.21.4.15.13.14-.07.56.2.5.07.42c.39.71.72,1.41,1.11,2l.33.07v.28l.33.57.06.14.26.35.13.42.33.36.26.49.14.28v.78a12.8,12.8,0,0,0,.65,1.48h.07l.46.71.26,1V63l.65.92.13.42.27.71.19.77.14.43c.32.84.65,1.62.91,2.47l.2.28.2.57.13.63.13.5.39.84.13.36.4.84.13.57.52,1.84.07.35.78,2.75.07.07.13.07-.06.22c.45,1.69.91,3.46,1.31,5.15l.32.57.14.42.06.14-.06.07.13.5.13.84.06.5.2.56v.57l.59,2.54.07.14.19.07-.13.21-.06.08c0,.07.06.14.06.21l.07.07.39.21.07.21-.14.5.14.49.06,1.34a.63.63,0,0,0,.07.35.54.54,0,0,1-.07.36v.63l-.26.36v-.57l-.07-.7-.26-1L147.7,93l-.07-.14L147,90.75v-.92l-.2-.7-.13-.28-.27-.43-.06-.7-.26-1.06-.27-1.34-.06-.29-.07-.28L145.2,84l-.06-.14-.13-.21Z"/><path class="cls-1" d="M172.94,61.45a2,2,0,0,1,.26-.85v-.14l.07-.21.32-.64.07-.28.2-.29c0-.07.13-.21.13-.28l.06-.14c.4-.85.86-1.62,1.25-2.47l.13-.35.2-.29.32-.63.07-.21.33-.64.06-.42.27-.43v-.56l-.14-.21-.13-.36-.26.21H176l-.85.36-1.38.49-.2.14-.45.14-.66.36-1.64.92-1.18.77-.39.21-3.87,2.41-.33.35h-.13l-.2.28-1.9,1.13-.72.28-.13.15-2.56,1.55-.13.14-.13.07-.26.35-.2.07v.08l-.59.28-.2.21h-.19l-.33.28-.13.07-.07.07-.13.07-.2.07-.26.15-.39.42-.26.07-.46.14-.4.28-.19.21-.53.29-1,.14-.46.21v.07l-.2.14-.06-.07h-.07l-.39.14H152l-.06.14-.07.08-.07-.08.07-.07h-.26l-1.84-.21v-.07h-.39l-.39-.21-.66-.42c-.13,0-.2-.08-.33-.08v-.07l-.06.07-.2-.35a3.82,3.82,0,0,1,.07-.92v-.42l.19-1.27.13-.57.27-.35.19-.56.07-.22.33-.42.13-.28.46-.57.78-1.48.2-.56.39-.57.33-.49.26-.71.4-.64.26-.35.39-.35.07-.14.13-.14.33-.5v-.14h.06l.33-.57.92-1,.26-.5.13-.21.07-.14.13-.71v-.77l.13-.5L155,48v-.29l.19-.42.4-.35.72-1,.59-.43h.46l.33.29v.07s0,.07.06.07a1.64,1.64,0,0,1,.2,1l.06.07.14,1.2L158,49l-.33.56-.65.78-.53,1.27-.46.42-.2.21-.39.43-.39.49-.26.21-.07.15-.26.35-.4.35-.06.21h-.07l-.13.07-1.37,1.91-.14.28-.19.36-.27.28c-.32.49-.65,1-.91,1.48l-.66,1a6.48,6.48,0,0,1-.39.71l-.26.49-.07.5-.13.7-.33.57-.06.42-.07.07a1.42,1.42,0,0,0,.07.57c.32.56,2,.14,3.67-.5l.39-.35.66-.07,1-.42.52-.15.53-.28c.92-.42,1.77-.85,2.69-1.34l.39-.35.46-.22.59-.28.39-.21.53-.57,1.64-.7c.06-.07.13-.14.19-.14l.14-.21.45-.15,1.45-.91.06-.07.26-.36.27-.07.13-.21.33-.21.19-.21.92-.29,2-1.27.59-.49.85-.5.79-.84.46-.29.59-.35.78-.35.33-.21.52-.36,1.58-.63.26-.14.59-.36.39-.42.07-.14.13-.07.26.14a6.19,6.19,0,0,1,1.12-.57l.06-.07.59-.28.2.07a.74.74,0,0,1,.39.43l.14-.08.39.15.33.21v.28l-.13.21h.13v.14l-.13-.07v.14L180,50l-.19.43-.53.63-.32.57v.42l-.6.85-.13.35-.19.36-.33.49-.13.21-.26.71-.27.63-.39.5-.07.28-.52.85-.07.28-.26.64-.06.42-.33.64-.2.21c-.33.92-.46,1.62-.13,1.9a2,2,0,0,0,1.31.64l.66.07h.52l.4.07h.45a14.37,14.37,0,0,0,2.3-.28l.07-.07h.39l.92-.28.32.07,1.45-.22.06-.07h.07l.39-.14.85-.07.66-.07h.07a.22.22,0,0,1,.19-.07h.07l.39-.07.33.14.13.21-.26.22-.26.07-.2.07-1.18.07-.26.21-.2.14-.13-.14-.85.21-2.23.78-.59.07-.4.07-.85.28-.59.07-.46.07h-.13a.24.24,0,0,1-.2.07h-.13l-.78.14-1,.22h-.52a10.32,10.32,0,0,1-1.9.14l-.14.07-.13-.07c-.13,0-.19-.07-.26-.07h-.19l-.2-.29-.07-.21v-.14l-.06-.07v-.07a1.66,1.66,0,0,1-.07-1l.07-.49Z"/><path class="cls-1" d="M191.49,57.49l-.13.28.53-.49.91-.71.27-.21.13-.07h.13v-.07l.52-.21-.26-.28H194l1.18-1.21h.2l1-1.13,1.18-.77,1.11-.92.14-.14h.06l1.25-1.06.06-.07L202.05,49v.07l1.18-.85.33-.35.26-.07.59-.43.13-.14h.07l1.31-.85.52-.56.39-.28,1-.43.72-.7.72-.43,1.38-.49.59-.28a19.8,19.8,0,0,1,2.16-1.13l.4-.36,1.18-.49,1.18-.43.19-.14.59-.35.72-.28.46-.21.86-.08a8.33,8.33,0,0,1,3-.49l.39-.14.27.28a2.22,2.22,0,0,1,.78.57.36.36,0,0,1,.13.28l.46.56-.13,1.84-.78,1.7-.79.28h-.72l-.4-.5v-.7l-.32.28v-.35l.13-.07.06-.36-.06-.49-.13-.92-.27-.35-1,.14-.92.42-.32.07-.53-.07-.72.36-.39.07-2.63.56c-1.24.57-2.29,1.13-2.69,1.34l-.39.21-.33.36-2.62,1.48-1,.64-.4.42-1.24.71-.33.21-.59.49-1,.71-.4.49-1.9,1.35-2.82,2.54-.39.63-.46.36-.85,1-.79.78-.26.14-.53.36-.46.49-.06.14-.53.5-.59.7-.32.35-.27.22-.65.7-.26.5-.27.21-.26.35-.65.64-1.12,1.2-.33.56-.26.36-.33.63-.13.43-.06.14-.13.35-.4.42-1.05.85-.65.5-.59-.15-.33-.49v-.07a.86.86,0,0,1-.13-.71v-.28l.13-.14.2-.85-.13.14-.07-.28.2-.49.26-.85.46-.71.06-.14V62l.27-.21.19-.35V61.3l.59-.49h.13l.2-.14.79-1.2.46-.71.19-.07.33-.7.39-1.06.46-.43.13-.42.72-1,.2-.14.85-1.41v-.29l1.12-1.48.65-1.2.27-.42.32-.64.07-.21.13-.14.46-.71v-.21l.39-.71.4-.07.19.14.4-.49.19-.49.07-.36v-.21l-.26-.14.19-.21-.06.14.19-.28-.06-.08-.26.36c-.33.35-.59,0-.59-.36l.13-.14V45.2l.06-.21.2-.35.07-.14-.14-.22-.06.08-.33-.15V44l.13-.14.26-.07h-.13l.13-.07h-.13l-.06-.28.26-.43.33.22.19-.36v-.28l.07-.21-.13-.07.33-.07v-.36l.13-.07h.13l.26-.28h.33l.46.07.33.07.26-.14v-.14l.26-.21.26.07h.2l.13.14-.06.07-.33.14a1.29,1.29,0,0,1,.85.92l.07.07-.07.21a5.25,5.25,0,0,1-1.38,2.76l.07.14-.72,1-.4.07-.59.7-.26.36-.2.49H197A12.29,12.29,0,0,1,196,49.79c0,.07-.06,0-.06,0l-.4.64-.13.42-.26.5-.59,1.06-.4.49-.13.28-.39.71-.79,1.34-.46,1.06L192,57l-.33.35Z"/><path class="cls-1" d="M241.91,50l1.58-.91.26-.29.2-.14.59-.14.19-.14.13-.14.27-.07,1.7-.92.26-.21.53-.5.19.08.4-.29.19-.07.53-.21.13-.14.33-.21.46-.14H250l.66-.36c.07,0,.33-.21.59-.28l.06-.14.73-.42.19-.08.07-.07.33-.07.39-.42h.33l.06.14a1,1,0,0,0,.33-.14L255,43l.26.07.65-.35.4-.28.46-.07.33-.28.52-.22.2-.07.72.14.33-.14h.52c1.25-.21,2.16,0,2.29.85v.07h.14l.32.35v.36h.2l.13.14-.13.14-.2.07-.13.35v.71l-.78,1.34L260.93,48l-.46.85-.46.28-.46.77-.46.85-.33.57h.33l.13.35-.32.49h-.33v-.35l-.13.21-.33.29-.26.49V53l-.2.07a.35.35,0,0,0-.13.21v.22l-.2.21-1.44,2.47-.07.07a4.48,4.48,0,0,1-.46.71l-.06.28h-.07l-.46.78v.07l-.06.21-.2.28v.21l-.26.21v.29l-.66.63-.65.92-.33.85-.13.07-.26.42-.33.43-1.71,2.61-.26.14-.13.28-.65,1.13-.33.21c0,.07-.07.15-.13.22l-.33.7-.26.21-.27.5v.07l-.06.07-.26.56v.15l-.2.07-.13.14-.2.42-.52.71-.33.42-.33.5-.06.21-.79.56-1.05,1.56-.13.42-.46.71-.59.7-2,2.9-.2.7-.26.29-.46.07-.13-.07-.46.84-.66.64-.13.07-1.05,1.34-.59.78v-.07l-.72.92-.06.21-.53.85L235,86l-.33.28L233.52,88v.07l-.33.78-.52.49c-1,1.55-2,3.18-2.95,4.87l-.07.71-.39.49-.07.43L229,96h-.07l-1.38,3.25-.78,1.48-.86,1.91-.65,1.55-.33.71-.46,1.34-.06.21v.21l-.07.22-.07.42-.06.21-.07.28.07.29-.2.21-.19,1.27-.07.28-.26.78-.07.28-.26.85-.26.42-.07.42-.19.36h-.14v1.83l.27,1.28.19.84.13,1v.64l-.13.28V119l-.06,1.2-.59,1h-.2l-.2-.14-.19-.42-.13.21-.33-.07-.2-.14-.06-.08.19-.35.13-1.69v-.43l-.06-.35-.13-1.27v-.57l.19-.91v-.29l.2-.42V114l.13-.21a11.59,11.59,0,0,1,.33-1.56,8.93,8.93,0,0,0,.33-1.2v-.35l.13-.35s.06,0,.06-.08l-.06-.63.06-.28.27-.5.13-.14c.33-1.41.78-2.82,1.24-4.17a8.79,8.79,0,0,1,.46-1.34l.59-2.05.27-.42.45-.78.46-1.06.2-.42c.79-1.55,1.57-3.11,2.43-4.59l.32-.78.27-.35.72-1.2.13-.28.39-.64.59-.92.33-.63.26-.35c.07,0,.07-.08.13-.15l.2-.35.26-.42,1.64-2.47.07-.08V85.1l.13-.07.59-.77v-.15l.33-.35.13-.35.39-.43.39-.63.33-.57.2-.21.39-.49.33-.71.52-.63.33-.29,3.41-4.59.13-.56.66-.64.26-.21.79-1.27.19-.14.27-.28.19-.36.59-.84.4-.5.46-.56,1.37-2,.07-.07.2-.43.91-1.48.33-.63,1.25-1.84L250.5,62l1.84-2.75,1.57-2.83.46-.7.46-.92,1.57-2.4.92-1.63.79-1.06.06-.14.4-1,.06-.28.2-.49-.07-.15h-.19v-.21h.19l-.32-1.06-.14-1.06.14-.49.06-.28-.33-.21-1.44-.15-1.57.15c-1.44.56-2.82,1.27-4.2,1.9l-4.19,2.26-.6.36-.26.07-.13.07-.06.14-.92.49h-.2l-.46.35-.39.15-.2.14-.19.28-.27.14h-.26l-.13.07v.14l-.33.22-.13.21-.33-.07-.19.14-1.18.77-.33.07-1.44.92-.53.21-.79.5-.32.07-1.18.78-.2.21-.26.07-.13.14-.27.21-.13.07-.26.07-.46.29-.52.21-.53.35-.13.21-.59.36-1.31.21-.92.49-.39.14h-.26l-.14.07V58l-.19-.08.06-.07h-.13a7.61,7.61,0,0,1-1.24.43l-1,.42L226,59l-.52.15h-.59L224.6,59l-.19-.21-.66-1.06c0-.07-.07-.14-.07-.21-.26-.78-.06-2.05.73-4,.26-.71.65-1.42,1-2.12a10.19,10.19,0,0,1,1.11-1.84l.27-.42.26-.78.46-.92.13-.42.39-.92,1.25-1.41.78-1.34.46-.43.27-.21.13-.28-.13-.14H231v.14l.27-.07v-.07l.13-.29.65-.49.72-.14.07.07.2-.14c.13-.07.19-.07.32.07a.35.35,0,0,1,.13.21.22.22,0,0,1,.07.14h.07l-.07.71-.2.63-.46.71-.59.92-.52.85v.07l-.52.42-.33.28-3.48,3.53-.19.29c-.4.63-.86,1.27-1.25,2l-.52,1-.14.64-.13.49-.13.21-.33.5-.06.21-.13.07h-.07a2.88,2.88,0,0,0-.13,1.63c.2,1,1.18,1.34,3.61.49l.59-.21.13-.14.85-.43.33-.07H230l.2-.14h.2l1.9-1.2.52-.21.66-.14.33-.21.85-.64.52-.14.46-.21.13-.14H236l4-2.33.06-.08.33-.28.59-.28.2-.35h.19Z"/><path d="M9.14,149.25H12c3.73,0,5.37,1.79,5.37,6.64v8.2c0,4.25.29,5.07.74,6.41h8.35a15.38,15.38,0,0,1-.89-6.34v-8c0-5.44-1.35-9.39-5.44-11.11,3.65-1.71,5.36-5.21,5.36-10.58v-4.1c0-8-3.65-12-12.15-12H.94V170.5h8.2Zm0-23.48h3.95c2.91,0,4.17,1.64,4.17,5.37v5.14c0,4.18-1.86,5.52-4.92,5.52H9.14Z"/><polygon points="51.4 163.04 37.24 163.04 37.24 147.76 48.5 147.76 48.5 140.31 37.24 140.31 37.24 125.77 51.4 125.77 51.4 118.32 29.04 118.32 29.04 170.5 51.4 170.5 51.4 163.04"/><path d="M81.15,170.5,72.8,118.32h-12L52.45,170.5H60L61.39,161H71.46l1.41,9.47ZM62.44,154l4-26.39,4,26.39Z"/><polygon points="104.78 163.04 91.29 163.04 91.29 118.32 83.09 118.32 83.09 170.5 104.78 170.5 104.78 163.04"/><polygon points="138.54 163.04 124.38 163.04 124.38 147.76 135.64 147.76 135.64 140.31 124.38 140.31 124.38 125.77 138.54 125.77 138.54 118.32 116.18 118.32 116.18 170.5 138.54 170.5 138.54 163.04"/><path d="M148.91,130.32c0-3.73,1.49-5.14,4.1-5.14s4.1,1.41,4.1,5.14v2.16h7.75v-1.64c0-8.35-4.1-13.12-12.08-13.12s-12.07,4.77-12.07,13.12c0,14.91,16,16.92,16,27.66,0,3.72-1.64,5.07-4.25,5.07s-4.24-1.35-4.24-5.07v-3.73h-7.76V158c0,8.35,4.18,13.12,12.23,13.12s12.22-4.77,12.22-13.12C164.93,143.07,148.91,141.05,148.91,130.32Z"/><polygon points="182.15 170.5 182.15 125.77 190.73 125.77 190.73 118.32 165.38 118.32 165.38 125.77 173.95 125.77 173.95 170.5 182.15 170.5"/><path d="M216.15,170.5l-8.35-52.18h-12l-8.35,52.18H195l1.41-9.47h10.06l1.42,9.47ZM197.44,154l3.95-26.39,4,26.39Z"/><polygon points="212.87 125.77 221.44 125.77 221.44 170.5 229.64 170.5 229.64 125.77 238.21 125.77 238.21 118.32 212.87 118.32 212.87 125.77"/><polygon points="262.29 125.77 262.29 118.32 239.93 118.32 239.93 170.5 262.29 170.5 262.29 163.04 248.13 163.04 248.13 147.76 259.38 147.76 259.38 140.31 248.13 140.31 248.13 125.77 262.29 125.77"/><polygon points="14.65 234.48 2.43 184.17 0.71 184.17 13.46 236.35 15.92 236.35 28.44 184.17 26.88 184.17 14.65 234.48"/><path d="M47.68,184.09l-12.6,52.26h1.49l3.06-12.3H58.19l3.05,12.3h1.64L50,184.09Zm-7.76,38.47L48.79,186l9.1,36.53Z"/><path d="M82.34,183.79c-7.9,0-10.88,6-10.88,13.2v26.53c0,7.23,3,13.2,10.88,13.2s11-6,11-13.2v-5.66H91.66v5.74c0,6.34-2.39,11.55-9.25,11.55s-9.31-5.21-9.31-11.55V196.91c0-6.33,2.38-11.63,9.31-11.63s9.25,5.3,9.25,11.63V201H93.3v-4C93.3,189.76,90.32,183.79,82.34,183.79Z"/><path d="M114.47,184.09l-12.6,52.26h1.49l3.06-12.3H125l3.06,12.3h1.64l-12.9-52.26Zm-7.75,38.47L115.59,186l9.09,36.53Z"/><polygon points="134 185.73 145.33 185.73 145.33 236.35 146.97 236.35 146.97 185.73 158.38 185.73 158.38 184.17 134 184.17 134 185.73"/><rect x="165.9" y="184.17" width="1.64" height="52.18"/><path d="M187.45,183.79c-7.9,0-11,5.89-11,13.2v26.53c0,7.31,3.14,13.2,11,13.2,8.05,0,11.18-5.89,11.18-13.2V197C198.63,189.68,195.5,183.79,187.45,183.79ZM197,223.6c0,6.41-2.54,11.63-9.54,11.63s-9.39-5.22-9.39-11.63V196.91c0-6.41,2.45-11.63,9.39-11.63S197,190.5,197,196.91Z"/><polygon points="228.15 232.99 209.81 184.17 207.5 184.17 207.5 236.35 209.07 236.35 209.07 186.55 227.7 236.35 229.71 236.35 229.71 184.17 228.15 184.17 228.15 232.99"/><path d="M240.37,196.61c0-6.18,2.31-11.33,9.17-11.33s9.1,5.22,9.1,11.41v1h1.64v-1c0-7.15-2.91-13-10.81-13-7.53.08-10.74,5.3-10.74,12.9,0,14.39,20,13.94,20,27.13,0,6.34-2.46,11.33-9.32,11.33s-9.31-5-9.31-11.33v-2.61h-1.57v2.54c0,7.23,3,13,10.88,13s11-5.74,11-13C260.35,209.59,240.37,210,240.37,196.61Z"/></g></g></svg>